<?xml version="1.0" encoding="UTF-8"?>
<svg width="76px" height="58px" viewBox="0 0 76 58" version="1.1" xmlns="http://www.w3.org/2000/svg" xmlns:xlink="http://www.w3.org/1999/xlink">
    <!-- Generator: Sketch 61.2 (89653) - https://sketch.com -->
    <title>01</title>
    <desc>Created with Sketch.</desc>
    <g id="Website" stroke="none" stroke-width="1" fill="none" fill-rule="evenodd">
        <g id="2" transform="translate(-98.000000, -790.000000)" fill="#5A67D8" fill-rule="nonzero">
            <path d="M119.804,847.248 C123.444,847.248 126.603,846.377 129.281,844.635 C131.959,842.893 134.182,840.605 135.95,837.771 C137.718,834.937 139.031,831.83 139.889,828.45 C140.747,825.07 141.176,821.768 141.176,818.544 C141.176,815.268 140.786,811.966 140.006,808.638 C139.226,805.31 138.004,802.255 136.34,799.473 C134.676,796.691 132.505,794.442 129.827,792.726 C127.149,791.01 123.912,790.152 120.116,790.152 C116.476,790.152 113.304,791.023 110.6,792.765 C107.896,794.507 105.634,796.795 103.814,799.629 C101.994,802.463 100.629,805.57 99.719,808.95 C98.809,812.33 98.354,815.658 98.354,818.934 C98.354,822.21 98.731,825.512 99.485,828.84 C100.239,832.168 101.448,835.223 103.112,838.005 C104.776,840.787 106.986,843.023 109.742,844.713 C112.498,846.403 115.852,847.248 119.804,847.248 Z M120.272,841.71 C118.504,841.71 117.009,841.216 115.787,840.228 C114.565,839.24 113.59,837.914 112.862,836.25 C112.134,834.586 111.575,832.701 111.185,830.595 C110.795,828.489 110.535,826.292 110.405,824.004 C110.275,821.716 110.21,819.48 110.21,817.296 C110.21,814.384 110.366,811.628 110.678,809.028 C110.99,806.428 111.523,804.114 112.277,802.086 C113.031,800.058 114.032,798.472 115.28,797.328 C116.528,796.184 118.088,795.612 119.96,795.612 C121.988,795.612 123.613,796.288 124.835,797.64 C126.057,798.992 126.993,800.825 127.643,803.139 C128.293,805.453 128.735,808.079 128.969,811.017 C129.203,813.955 129.32,817.01 129.32,820.182 C129.32,823.042 129.19,825.772 128.93,828.372 C128.67,830.972 128.215,833.273 127.565,835.275 C126.915,837.277 125.992,838.85 124.796,839.994 C123.6,841.138 122.092,841.71 120.272,841.71 Z M173.234,846 L173.234,839.994 C172.714,839.994 171.817,840.007 170.543,840.033 C169.269,840.059 168.216,840.124 167.384,840.228 C167.488,839.552 167.553,838.564 167.579,837.264 C167.605,835.964 167.618,834.612 167.618,833.208 L167.618,833.208 L167.618,790.152 L162.938,790.152 L145.076,803.178 L147.884,807.858 L156.386,802.788 L156.386,834.066 C156.386,836.146 156.165,837.654 155.723,838.59 C155.281,839.526 154.657,840.124 153.851,840.384 C153.045,840.644 152.044,840.8 150.848,840.852 L150.848,840.852 L150.848,846 L173.234,846 Z" id="01"></path>
        </g>
    </g>
</svg>