<?xml version="1.0" encoding="UTF-8"?>
<svg width="85px" height="58px" viewBox="0 0 85 58" version="1.1" xmlns="http://www.w3.org/2000/svg" xmlns:xlink="http://www.w3.org/1999/xlink">
    <!-- Generator: Sketch 61.2 (89653) - https://sketch.com -->
    <title>02</title>
    <desc>Created with Sketch.</desc>
    <g id="Website" stroke="none" stroke-width="1" fill="none" fill-rule="evenodd">
        <g id="2" transform="translate(-210.000000, -790.000000)" fill="#5A67D8" fill-rule="nonzero">
            <path d="M231.804,847.248 C235.444,847.248 238.603,846.377 241.281,844.635 C243.959,842.893 246.182,840.605 247.95,837.771 C249.718,834.937 251.031,831.83 251.889,828.45 C252.747,825.07 253.176,821.768 253.176,818.544 C253.176,815.268 252.786,811.966 252.006,808.638 C251.226,805.31 250.004,802.255 248.34,799.473 C246.676,796.691 244.505,794.442 241.827,792.726 C239.149,791.01 235.912,790.152 232.116,790.152 C228.476,790.152 225.304,791.023 222.6,792.765 C219.896,794.507 217.634,796.795 215.814,799.629 C213.994,802.463 212.629,805.57 211.719,808.95 C210.809,812.33 210.354,815.658 210.354,818.934 C210.354,822.21 210.731,825.512 211.485,828.84 C212.239,832.168 213.448,835.223 215.112,838.005 C216.776,840.787 218.986,843.023 221.742,844.713 C224.498,846.403 227.852,847.248 231.804,847.248 Z M232.272,841.71 C230.504,841.71 229.009,841.216 227.787,840.228 C226.565,839.24 225.59,837.914 224.862,836.25 C224.134,834.586 223.575,832.701 223.185,830.595 C222.795,828.489 222.535,826.292 222.405,824.004 C222.275,821.716 222.21,819.48 222.21,817.296 C222.21,814.384 222.366,811.628 222.678,809.028 C222.99,806.428 223.523,804.114 224.277,802.086 C225.031,800.058 226.032,798.472 227.28,797.328 C228.528,796.184 230.088,795.612 231.96,795.612 C233.988,795.612 235.613,796.288 236.835,797.64 C238.057,798.992 238.993,800.825 239.643,803.139 C240.293,805.453 240.735,808.079 240.969,811.017 C241.203,813.955 241.32,817.01 241.32,820.182 C241.32,823.042 241.19,825.772 240.93,828.372 C240.67,830.972 240.215,833.273 239.565,835.275 C238.915,837.277 237.992,838.85 236.796,839.994 C235.6,841.138 234.092,841.71 232.272,841.71 Z M293.814,846 L294.438,833.286 L289.446,833.286 C289.446,834.742 289.199,835.847 288.705,836.601 C288.211,837.355 287.535,837.849 286.677,838.083 C285.819,838.317 284.792,838.408 283.596,838.356 L283.596,838.356 L268.308,837.966 C268.568,836.926 269.374,835.444 270.726,833.52 C272.078,831.596 274.184,829.464 277.044,827.124 C280.58,824.212 283.466,821.664 285.702,819.48 C287.938,817.296 289.68,815.359 290.928,813.669 C292.176,811.979 293.034,810.419 293.502,808.989 C293.97,807.559 294.204,806.194 294.204,804.894 C294.204,802.138 293.697,799.824 292.683,797.952 C291.669,796.08 290.304,794.572 288.588,793.428 C286.872,792.284 284.987,791.452 282.933,790.932 C280.879,790.412 278.812,790.152 276.732,790.152 C273.976,790.152 271.545,790.555 269.439,791.361 C267.333,792.167 265.552,793.207 264.096,794.481 C262.64,795.755 261.548,797.081 260.82,798.459 C260.092,799.837 259.728,801.124 259.728,802.32 C259.728,803.828 260.157,805.128 261.015,806.22 C261.873,807.312 263.108,807.91 264.72,808.014 C266.02,808.014 267.047,807.728 267.801,807.156 C268.555,806.584 269.114,805.895 269.478,805.089 C269.842,804.283 270.024,803.594 270.024,803.022 C270.024,802.45 269.907,801.774 269.673,800.994 C269.439,800.214 269.036,799.538 268.464,798.966 C269.036,798.082 269.881,797.315 270.999,796.665 C272.117,796.015 273.378,795.69 274.782,795.69 C276.758,795.638 278.292,796.119 279.384,797.133 C280.476,798.147 281.23,799.434 281.646,800.994 C282.062,802.554 282.27,804.166 282.27,805.83 C282.27,808.638 281.477,811.472 279.891,814.332 C278.305,817.192 275.614,820.39 271.818,823.926 C270.31,825.33 268.841,826.76 267.411,828.216 C265.981,829.672 264.681,831.258 263.511,832.974 C262.341,834.69 261.405,836.614 260.703,838.746 C260.001,840.878 259.65,843.296 259.65,846 L259.65,846 L293.814,846 Z" id="02"></path>
        </g>
    </g>
</svg>