<?xml version="1.0" encoding="UTF-8"?>
<svg width="88px" height="58px" viewBox="0 0 88 58" version="1.1" xmlns="http://www.w3.org/2000/svg" xmlns:xlink="http://www.w3.org/1999/xlink">
    <!-- Generator: Sketch 61.2 (89653) - https://sketch.com -->
    <title>03</title>
    <desc>Created with Sketch.</desc>
    <g id="Website" stroke="none" stroke-width="1" fill="none" fill-rule="evenodd">
        <g id="2" transform="translate(-322.000000, -790.000000)" fill="#5A67D8" fill-rule="nonzero">
            <path d="M343.804,847.248 C347.444,847.248 350.603,846.377 353.281,844.635 C355.959,842.893 358.182,840.605 359.95,837.771 C361.718,834.937 363.031,831.83 363.889,828.45 C364.747,825.07 365.176,821.768 365.176,818.544 C365.176,815.268 364.786,811.966 364.006,808.638 C363.226,805.31 362.004,802.255 360.34,799.473 C358.676,796.691 356.505,794.442 353.827,792.726 C351.149,791.01 347.912,790.152 344.116,790.152 C340.476,790.152 337.304,791.023 334.6,792.765 C331.896,794.507 329.634,796.795 327.814,799.629 C325.994,802.463 324.629,805.57 323.719,808.95 C322.809,812.33 322.354,815.658 322.354,818.934 C322.354,822.21 322.731,825.512 323.485,828.84 C324.239,832.168 325.448,835.223 327.112,838.005 C328.776,840.787 330.986,843.023 333.742,844.713 C336.498,846.403 339.852,847.248 343.804,847.248 Z M344.272,841.71 C342.504,841.71 341.009,841.216 339.787,840.228 C338.565,839.24 337.59,837.914 336.862,836.25 C336.134,834.586 335.575,832.701 335.185,830.595 C334.795,828.489 334.535,826.292 334.405,824.004 C334.275,821.716 334.21,819.48 334.21,817.296 C334.21,814.384 334.366,811.628 334.678,809.028 C334.99,806.428 335.523,804.114 336.277,802.086 C337.031,800.058 338.032,798.472 339.28,797.328 C340.528,796.184 342.088,795.612 343.96,795.612 C345.988,795.612 347.613,796.288 348.835,797.64 C350.057,798.992 350.993,800.825 351.643,803.139 C352.293,805.453 352.735,808.079 352.969,811.017 C353.203,813.955 353.32,817.01 353.32,820.182 C353.32,823.042 353.19,825.772 352.93,828.372 C352.67,830.972 352.215,833.273 351.565,835.275 C350.915,837.277 349.992,838.85 348.796,839.994 C347.6,841.138 346.092,841.71 344.272,841.71 Z M388.264,847.248 C392.32,847.248 395.921,846.611 399.067,845.337 C402.213,844.063 404.683,842.191 406.477,839.721 C408.271,837.251 409.168,834.248 409.168,830.712 C409.168,827.384 407.985,824.368 405.619,821.664 C403.253,818.96 399.574,817.166 394.582,816.282 C397.442,815.606 399.73,814.566 401.446,813.162 C403.162,811.758 404.397,810.211 405.151,808.521 C405.905,806.831 406.282,805.31 406.282,803.958 C406.282,800.578 405.515,797.874 403.981,795.846 C402.447,793.818 400.367,792.362 397.741,791.478 C395.115,790.594 392.19,790.152 388.966,790.152 C385.326,790.152 382.284,790.815 379.84,792.141 C377.396,793.467 375.576,795.066 374.38,796.938 C373.184,798.81 372.586,800.526 372.586,802.086 C372.586,803.594 373.002,804.894 373.834,805.986 C374.666,807.078 375.888,807.65 377.5,807.702 C378.8,807.754 379.84,807.494 380.62,806.922 C381.4,806.35 381.959,805.661 382.297,804.855 C382.635,804.049 382.804,803.334 382.804,802.71 C382.804,802.242 382.713,801.631 382.531,800.877 C382.349,800.123 382.024,799.46 381.556,798.888 C381.972,798.056 382.752,797.302 383.896,796.626 C385.04,795.95 386.314,795.612 387.718,795.612 C389.486,795.612 390.903,796.002 391.969,796.782 C393.035,797.562 393.815,798.641 394.309,800.019 C394.803,801.397 395.024,802.996 394.972,804.816 C394.92,806.74 394.465,808.43 393.607,809.886 C392.749,811.342 391.514,812.486 389.902,813.318 C388.29,814.15 386.34,814.566 384.052,814.566 L384.052,814.566 L382.96,814.566 C382.596,814.566 382.206,814.54 381.79,814.488 L381.79,814.488 L381.79,820.104 C382.258,820.052 382.96,820 383.896,819.948 C384.832,819.896 385.482,819.87 385.846,819.87 C388.862,819.818 391.202,820.377 392.866,821.547 C394.53,822.717 395.7,824.186 396.376,825.954 C397.052,827.722 397.39,829.49 397.39,831.258 C397.39,834.17 396.558,836.614 394.894,838.59 C393.23,840.566 390.76,841.554 387.484,841.554 C386.028,841.554 384.637,841.281 383.311,840.735 C381.985,840.189 381.036,839.422 380.464,838.434 C380.88,837.862 381.192,837.251 381.4,836.601 C381.608,835.951 381.712,835.366 381.712,834.846 C381.712,834.17 381.556,833.442 381.244,832.662 C380.932,831.882 380.412,831.206 379.684,830.634 C378.956,830.062 377.942,829.802 376.642,829.854 C375.03,829.906 373.743,830.517 372.781,831.687 C371.819,832.857 371.338,834.222 371.338,835.782 C371.338,837.55 371.936,839.318 373.132,841.086 C374.328,842.854 376.174,844.323 378.67,845.493 C381.166,846.663 384.364,847.248 388.264,847.248 Z" id="03"></path>
        </g>
    </g>
</svg>