<?xml version="1.0" encoding="UTF-8"?>
<svg width="1250px" height="237px" viewBox="0 0 1250 237" version="1.1" xmlns="http://www.w3.org/2000/svg" xmlns:xlink="http://www.w3.org/1999/xlink">
    <!-- Generator: Sketch 61.2 (89653) - https://sketch.com -->
    <title>Group 10</title>
    <desc>Created with Sketch.</desc>
    <defs>
        <rect id="path-1" x="0" y="0" width="1250" height="237" rx="12"></rect>
    </defs>
    <g id="Page-1" stroke="none" stroke-width="1" fill="none" fill-rule="evenodd">
        <g id="2" transform="translate(-95.000000, -2014.000000)">
            <g id="Group-10" transform="translate(95.000000, 2014.000000)">
                <g id="Combined-Shape">
                    <mask id="mask-2" fill="white">
                        <use xlink:href="#path-1"></use>
                    </mask>
                    <use id="Mask" fill="#0A083B" xlink:href="#path-1"></use>
                    <path d="M1275,53 C1337.96046,53 1389,104.039539 1389,167 C1389,229.960461 1337.96046,281 1275,281 C1212.03954,281 1161,229.960461 1161,167 C1161,104.039539 1212.03954,53 1275,53 Z M1275,100 C1237.99692,100 1208,129.996922 1208,167 C1208,204.003078 1237.99692,234 1275,234 C1312.00308,234 1342,204.003078 1342,167 C1342,129.996922 1312.00308,100 1275,100 Z" fill="#FC8181" mask="url(#mask-2)"></path>
                    <path d="M718,-98 C763.839634,-98 801,-60.8396342 801,-15 C801,30.8396342 763.839634,68 718,68 C672.160366,68 635,30.8396342 635,-15 C635,-60.8396342 672.160366,-98 718,-98 Z M718.5,-63 C691.71419,-63 670,-41.2858104 670,-14.5 C670,12.2858104 691.71419,34 718.5,34 C745.28581,34 767,12.2858104 767,-14.5 C767,-41.2858104 745.28581,-63 718.5,-63 Z" id="Combined-Shape-Copy" fill="#9AE6B4" mask="url(#mask-2)"></path>
                    <path d="M175.115622,272.979008 L432.218547,195.906703 C458.140821,188.135926 485.454436,202.850622 493.225213,228.772896 C494.593607,233.337676 495.288783,238.077661 495.288783,242.843133 L495.288783,473 C495.288783,500.061953 473.350736,522 446.288783,522 L280.167647,522 C262.882662,522 246.876334,512.893097 238.045377,498.034265 L147.063589,344.949703 C133.237546,321.686216 140.888107,291.619211 164.151594,277.793169 C167.595712,275.746248 171.277876,274.129458 175.115622,272.979008 Z" id="Rectangle" fill="#4FD1C5" mask="url(#mask-2)"></path>
                </g>
            </g>
        </g>
    </g>
</svg>