<?xml version="1.0" encoding="UTF-8"?>
<svg width="498px" height="455px" viewBox="0 0 498 455" version="1.1" xmlns="http://www.w3.org/2000/svg" xmlns:xlink="http://www.w3.org/1999/xlink">
    <!-- Generator: Sketch 61.2 (89653) - https://sketch.com -->
    <title>problem_solving</title>
    <desc>Created with Sketch.</desc>
    <defs>
        <linearGradient x1="0%" y1="49.9925411%" x2="99.9971399%" y2="49.9925411%" id="linearGradient-1">
            <stop stop-color="#000000" stop-opacity="0" offset="0%"></stop>
            <stop stop-color="#000000" stop-opacity="0.8" offset="91%"></stop>
            <stop stop-color="#000000" offset="100%"></stop>
        </linearGradient>
        <linearGradient x1="158.266184%" y1="-58.6216999%" x2="92.8894083%" y2="-106.424577%" id="linearGradient-2">
            <stop stop-color="#000000" stop-opacity="0" offset="0%"></stop>
            <stop stop-color="#000000" stop-opacity="0.8" offset="91%"></stop>
            <stop stop-color="#000000" offset="100%"></stop>
        </linearGradient>
        <linearGradient x1="25.2007941%" y1="-1.365633%" x2="141.265682%" y2="-21.9589553%" id="linearGradient-3">
            <stop stop-color="#000000" stop-opacity="0" offset="0%"></stop>
            <stop stop-color="#000000" stop-opacity="0.8" offset="91%"></stop>
            <stop stop-color="#000000" offset="100%"></stop>
        </linearGradient>
        <linearGradient x1="126.037829%" y1="97.3765242%" x2="51.9159912%" y2="54.1076487%" id="linearGradient-4">
            <stop stop-color="#00272E" offset="36%"></stop>
            <stop stop-color="#69B9EB" stop-opacity="0" offset="100%"></stop>
        </linearGradient>
        <linearGradient x1="0.198624593%" y1="50.0105479%" x2="100.183796%" y2="50.0105479%" id="linearGradient-5">
            <stop stop-color="#F3BD8D" offset="0%"></stop>
            <stop stop-color="#EFD4D1" offset="100%"></stop>
            <stop stop-color="#F2EAC9" offset="100%"></stop>
        </linearGradient>
        <linearGradient x1="0.198624593%" y1="50.0105479%" x2="100.183796%" y2="50.0105479%" id="linearGradient-6">
            <stop stop-color="#F3BD8D" offset="0%"></stop>
            <stop stop-color="#EFD4D1" offset="42%"></stop>
            <stop stop-color="#EBA262" offset="100%"></stop>
        </linearGradient>
        <linearGradient x1="186.29954%" y1="428.70299%" x2="286.273448%" y2="428.70299%" id="linearGradient-7">
            <stop stop-color="#F3BD8D" offset="0%"></stop>
            <stop stop-color="#EFD4D1" offset="42%"></stop>
            <stop stop-color="#F2EAC9" offset="100%"></stop>
        </linearGradient>
        <linearGradient x1="186.29954%" y1="428.70299%" x2="286.273448%" y2="428.70299%" id="linearGradient-8">
            <stop stop-color="#F3BD8D" offset="0%"></stop>
            <stop stop-color="#EFD4D1" offset="42%"></stop>
            <stop stop-color="#F2EAC9" offset="100%"></stop>
        </linearGradient>
        <linearGradient x1="91.2681652%" y1="-76.1674867%" x2="184.311386%" y2="-122.219569%" id="linearGradient-9">
            <stop stop-color="#000000" stop-opacity="0" offset="0%"></stop>
            <stop stop-color="#000000" stop-opacity="0.8" offset="91%"></stop>
            <stop stop-color="#000000" offset="100%"></stop>
        </linearGradient>
        <linearGradient x1="0%" y1="50.0337154%" x2="100%" y2="50.0337154%" id="linearGradient-10">
            <stop stop-color="#F3BD8D" offset="0%"></stop>
            <stop stop-color="#EFD4D1" offset="42%"></stop>
            <stop stop-color="#F2EAC9" offset="100%"></stop>
        </linearGradient>
        <linearGradient x1="0%" y1="50.0337154%" x2="100%" y2="50.0337154%" id="linearGradient-11">
            <stop stop-color="#F3BD8D" offset="0%"></stop>
            <stop stop-color="#EFD4D1" offset="42%"></stop>
            <stop stop-color="#F2EAC9" offset="100%"></stop>
        </linearGradient>
        <linearGradient x1="169.422885%" y1="18.7268031%" x2="95.2372026%" y2="65.517492%" id="linearGradient-12">
            <stop stop-color="#00272E" offset="36%"></stop>
            <stop stop-color="#69B9EB" stop-opacity="0" offset="100%"></stop>
        </linearGradient>
        <linearGradient x1="186.29954%" y1="428.70299%" x2="286.273448%" y2="428.70299%" id="linearGradient-13">
            <stop stop-color="#F3BD8D" offset="0%"></stop>
            <stop stop-color="#EFD4D1" offset="42%"></stop>
            <stop stop-color="#F2EAC9" offset="100%"></stop>
        </linearGradient>
        <linearGradient x1="186.29954%" y1="428.70299%" x2="286.273448%" y2="428.70299%" id="linearGradient-14">
            <stop stop-color="#F3BD8D" offset="0%"></stop>
            <stop stop-color="#EFD4D1" offset="42%"></stop>
            <stop stop-color="#F2EAC9" offset="100%"></stop>
        </linearGradient>
        <linearGradient x1="56.134709%" y1="-31.5070184%" x2="81.9293985%" y2="-37.7364471%" id="linearGradient-15">
            <stop stop-color="#00272E" offset="36%"></stop>
            <stop stop-color="#69B9EB" stop-opacity="0" offset="100%"></stop>
        </linearGradient>
        <linearGradient x1="186.29954%" y1="428.70299%" x2="286.273448%" y2="428.70299%" id="linearGradient-16">
            <stop stop-color="#F3BD8D" offset="0%"></stop>
            <stop stop-color="#EFD4D1" offset="42%"></stop>
            <stop stop-color="#F2EAC9" offset="100%"></stop>
        </linearGradient>
        <linearGradient x1="45.4562202%" y1="-126.294862%" x2="134.255212%" y2="-65.045273%" id="linearGradient-17">
            <stop stop-color="#00272E" offset="36%"></stop>
            <stop stop-color="#69B9EB" stop-opacity="0" offset="100%"></stop>
        </linearGradient>
        <linearGradient x1="0%" y1="50.0337154%" x2="100%" y2="50.0337154%" id="linearGradient-18">
            <stop stop-color="#F3BD8D" offset="0%"></stop>
            <stop stop-color="#EFD4D1" offset="42%"></stop>
            <stop stop-color="#F2EAC9" offset="100%"></stop>
        </linearGradient>
        <linearGradient x1="228.801823%" y1="294.138452%" x2="127.376898%" y2="299.175854%" id="linearGradient-19">
            <stop stop-color="#000000" stop-opacity="0" offset="0%"></stop>
            <stop stop-color="#000000" stop-opacity="0.8" offset="91%"></stop>
            <stop stop-color="#000000" offset="100%"></stop>
        </linearGradient>
        <linearGradient x1="46.1170753%" y1="37.7171783%" x2="57.6889504%" y2="70.8745655%" id="linearGradient-20">
            <stop stop-color="#68E1FD" stop-opacity="0" offset="0%"></stop>
            <stop stop-color="#66DAF6" stop-opacity="0.04" offset="2%"></stop>
            <stop stop-color="#58A1BC" stop-opacity="0.39" offset="18%"></stop>
            <stop stop-color="#4D758F" stop-opacity="0.66" offset="35%"></stop>
            <stop stop-color="#45566F" stop-opacity="0.85" offset="53%"></stop>
            <stop stop-color="#40435C" stop-opacity="0.96" offset="73%"></stop>
            <stop stop-color="#3F3D56" offset="99%"></stop>
        </linearGradient>
        <linearGradient x1="188.195011%" y1="91.9683448%" x2="199.266264%" y2="62.2217773%" id="linearGradient-21">
            <stop stop-color="#68E1FD" stop-opacity="0" offset="0%"></stop>
            <stop stop-color="#66DAF6" stop-opacity="0.04" offset="2%"></stop>
            <stop stop-color="#58A1BC" stop-opacity="0.39" offset="18%"></stop>
            <stop stop-color="#4D758F" stop-opacity="0.66" offset="35%"></stop>
            <stop stop-color="#45566F" stop-opacity="0.85" offset="53%"></stop>
            <stop stop-color="#40435C" stop-opacity="0.96" offset="73%"></stop>
            <stop stop-color="#3F3D56" offset="99%"></stop>
        </linearGradient>
    </defs>
    <g id="Page-1" stroke="none" stroke-width="1" fill="none" fill-rule="evenodd">
        <g id="1" transform="translate(-141.000000, -1698.000000)" fill-rule="nonzero">
            <g id="problem_solving" transform="translate(141.000000, 1698.000000)">
                <path d="M498,275.568719 C498,285.344474 496.922559,295.090362 494.785228,304.628894 C475.786769,389.912857 374.51765,455 252.470875,455 C202.118849,455 155.309944,443.918897 116.358521,424.92272 C89.4796718,411.815052 66.3348445,394.937208 48.3519781,375.313944 C40.7058411,368.046791 33.9768027,359.869511 28.3150178,350.964577 C-23.3274985,270.704964 -3.96250941,127.491837 83.4090226,128.684834 C93.8314048,128.890727 104.255254,128.356619 114.602233,127.086524 C139.152091,123.912848 154.042362,116.479561 163.060522,108.419186 C165.274189,106.447273 167.291891,104.265215 169.085354,101.903589 C181.636173,85.1958004 200.140974,73.9832353 220.743143,70.6027228 C402.984795,41.3666582 469.34959,132.355593 489.921073,209.020921 C495.510423,229.692711 498.206238,251.041716 497.931275,272.456222 C497.984728,273.488623 498,274.528671 498,275.568719 Z" id="Path" fill="#FFF5F7"></path>
                <path d="M131.296172,393 L33.9185942,360.137614 C33.9185942,360.137614 -1.91549783,315.712253 0.0803830912,241 L144.992044,300.282216 C144.992044,300.282216 208.003764,282.184977 245.543149,280.373724 C283.082534,278.562472 449.505356,261.099553 449.505356,261.099553 C449.505356,261.099553 481.62298,297.897783 467.338284,309.155061 C453.053588,320.412338 350.238956,322.307657 350.238956,322.307657 L278.739007,280.427221 L218.640815,326.862537 L172.758495,370.072754 L131.296172,393 Z" id="Path" fill="#000405" opacity="0.05"></path>
                <path d="M290.599526,227 L289,230.608524 C289,230.608524 293.798578,234.380426 290.599526,236 C290.599526,236 307.250592,235.083662 290.599526,227 Z" id="Path" fill="#3F3D56"></path>
                <path d="M108.843359,353 L107,358.339017 L122.1125,365.569261 C122.1125,365.569261 136.158594,367.374876 140.477539,363.592424 C143.0976,361.233287 145.011957,358.165763 146,354.743353 L108.843359,353 Z" id="Path" fill="#333333"></path>
                <path d="M148.903301,304.002435 C148.903301,304.002435 166.83271,303.688521 172.078098,310.188835 C177.323485,316.689148 158.473833,335.937426 158.473833,335.937426 L115,339 L148.903301,304.002435 Z" id="Path" fill="#4C51BF"></path>
                <path d="M148.903301,304.002435 C148.903301,304.002435 166.83271,303.688521 172.078098,310.188835 C177.323485,316.689148 158.473833,335.937426 158.473833,335.937426 L115,339 L148.903301,304.002435 Z" id="Path" fill="url(#linearGradient-1)"></path>
                <path d="M147.735098,332.141564 C147.735098,332.141564 185.230995,335.550944 191.750029,337.975221 C204.070546,342.646764 200.406452,360.101557 194.803441,361.964018 C190.154622,363.541722 154.796113,376.58664 143.490856,380.765632 C141.544677,381.474476 139.388541,380.524489 138.582496,378.603023 L134.704663,369.283025 C134.274417,368.251072 134.298897,367.083489 134.772015,366.070789 C135.245132,365.058088 136.122407,364.295477 137.185561,363.972704 L159.429665,357.300171 C159.429665,357.300171 126.407017,360.655678 119.735312,359.162631 C104.964433,355.899477 90.3996583,336.843892 98.1553243,320.204887 C105.91099,303.565882 147.735098,332.141564 147.735098,332.141564 Z" id="Path" fill="#4C51BF"></path>
                <path d="M147.735098,332.141564 C147.735098,332.141564 185.230995,335.550944 191.750029,337.975221 C204.070546,342.646764 200.406452,360.101557 194.803441,361.964018 C190.154622,363.541722 154.796113,376.58664 143.490856,380.765632 C141.544677,381.474476 139.388541,380.524489 138.582496,378.603023 L134.704663,369.283025 C134.274417,368.251072 134.298897,367.083489 134.772015,366.070789 C135.245132,365.058088 136.122407,364.295477 137.185561,363.972704 L159.429665,357.300171 C159.429665,357.300171 126.407017,360.655678 119.735312,359.162631 C104.964433,355.899477 90.3996583,336.843892 98.1553243,320.204887 C105.91099,303.565882 147.735098,332.141564 147.735098,332.141564 Z" id="Path" fill="url(#linearGradient-2)"></path>
                <path d="M245.73002,238 L244,244.837716 L252.871114,252.776551 C252.871114,252.776551 250.333243,252.776551 248.298375,256.780619 L247.490524,265.535668 C247.490524,265.535668 253.450327,278.564289 269.896945,267.175795 L296.571255,291 L355.734876,269.947843 L357,261.801104 L245.73002,238 Z" id="Path" fill="#3F3D56"></path>
                <path d="M406.603897,244.146866 L376.952029,232.639702 C373.238631,230.584125 368.742139,230.4538 364.913156,232.29077 C361.508517,233.881687 359.276514,237.205474 359.116377,240.923039 C358.095223,251.997832 364.130015,302.972217 364.130015,302.972217 C366.355419,303.823323 368.674876,304.411487 371.040083,304.724462 C375.239663,305.550585 379.593987,304.498014 382.933077,301.849567 L383.508915,263.504996 C383.508915,263.504996 416.930609,283.902335 428.854314,282.203189 C442.198422,280.306821 463.665698,269.489935 449.162235,244.404772 C434.658771,219.319609 406.603897,244.146866 406.603897,244.146866 Z" id="Path" fill="#4C51BF"></path>
                <path d="M406.603897,244.146866 L376.952029,232.639702 C373.238631,230.584125 368.742139,230.4538 364.913156,232.29077 C361.508517,233.881687 359.276514,237.205474 359.116377,240.923039 C358.095223,251.997832 364.130015,302.972217 364.130015,302.972217 C366.355419,303.823323 368.674876,304.411487 371.040083,304.724462 C375.239663,305.550585 379.593987,304.498014 382.933077,301.849567 L383.508915,263.504996 C383.508915,263.504996 416.930609,283.902335 428.854314,282.203189 C442.198422,280.306821 463.665698,269.489935 449.162235,244.404772 C434.658771,219.319609 406.603897,244.146866 406.603897,244.146866 Z" id="Path" fill="url(#linearGradient-3)"></path>
                <path d="M382.126259,177 C382.126259,177 373.491034,204.567434 371.160894,210.478015 C368.830754,216.388595 328,221.306442 328,221.306442 L329.522967,239 L376.01916,233.211602 L390,212.936938 L382.126259,177 Z" id="Path" fill="#4C51BF"></path>
                <path d="M382.126259,177 C382.126259,177 373.491034,204.567434 371.160894,210.478015 C368.830754,216.388595 328,221.306442 328,221.306442 L329.522967,239 L376.01916,233.211602 L390,212.936938 L382.126259,177 Z" id="Path" fill="url(#linearGradient-4)" opacity="0.61"></path>
                <path d="M405.387752,167.271521 L414.913323,172.59165 C432.608048,180.541002 439.037617,198.236214 449,245.454288 C449,245.454288 440.631598,264.282919 409.824845,251.622553 C409.824845,251.622553 388.919167,220.88917 385.47065,209.369934 C382.022133,197.850698 373.339533,178.027434 389.302336,170.448178 C405.265139,162.868921 405.387752,167.271521 405.387752,167.271521 Z" id="Path" fill="#4C51BF"></path>
                <path d="M426.395365,207 L438,250.86165 C438,250.86165 426.157754,258.09387 410.329768,250.600614 C394.501783,243.107359 400.104813,235.65249 395,226.546956 L410.506061,218.101688 L426.395365,207 Z" id="Path" fill="#000405" opacity="0.05"></path>
                <path d="M404.225878,166 C403.064834,168.609349 400.952045,170.632431 398.353047,171.623475 C395.754049,172.614519 392.882118,172.492199 390.370062,171.283468 L389.940998,171.068443 C389.940998,171.068443 381.300532,186.711503 393.639827,184.845394 C400.179358,183.854744 405.905146,173.748575 407,168.626375 L404.225878,166 Z" id="Path" fill="#333333"></path>
                <path d="M405,154 C405,154.174461 404.610352,161.79767 404.308926,167.289414 C404.088725,171.53862 402.321616,175.545362 399.36113,178.508046 C397.645323,180.346804 395.583988,181.805097 393.303205,182.79373 C392.181412,183.224408 390.920283,182.969448 390.038984,182.13381 C389.154832,181.293834 388.797662,180.015744 389.11265,178.819042 C389.406724,177.673665 389.700798,176.353826 389.936058,174.973304 C390.42128,172.106068 390.671243,169.003687 389.884595,166.811541 C389.862085,166.729126 389.835086,166.648087 389.803724,166.568812 C389.362613,165.438605 389.803724,164.202204 390.840335,162.958218 C392.266594,161.213603 394.766224,159.446232 397.265853,157.951932 C399.771167,156.488228 402.353175,155.168895 405,154 L405,154 Z" id="Path" fill="url(#linearGradient-5)"></path>
                <path d="M391.762674,173.391064 C391.221941,173.668701 390.647709,173.873417 390.054596,174 C390.569359,171.010676 390.83454,167.776196 390,165.490708 L391.013928,161.47331 L391.793872,158.483986 L397.861838,156.253855 L404,154 C402.471309,165.055753 396.645125,171.073942 391.762674,173.391064 Z" id="Path" fill="url(#linearGradient-6)"></path>
                <path d="M388.971648,123.012598 C379.621627,123.575428 372.488715,131.666847 373.028749,141.097874 C373.028749,141.534309 373.097075,141.970745 373.15781,142.40718 C373.688796,149.356426 375.458185,156.152111 378.381008,162.467901 C383.915471,171.992915 397.884488,164.152389 400.093718,160.232126 C402.302948,156.311863 410.653991,138.571142 407.154145,133.525334 C404.838628,130.095104 398.036325,122.65273 388.971648,123.012598 Z" id="Path" fill="url(#linearGradient-7)"></path>
                <path d="M374.19944,116.2203 L377.080896,117.708503 C373.592864,117.627093 370.279116,119.240207 368.177349,122.0427 C365.545849,124.691447 364.046834,128.270009 364,132.015188 L368.901525,129.713845 C368.901525,129.713845 368.528002,135.789392 377.797449,136.257332 C387.066895,136.725272 396.892813,137.101158 396.892813,137.101158 L393.767424,132.713263 C393.767424,132.713263 399.522713,135.014606 400.536559,137.193211 C401.445486,140.632353 402.097789,144.135031 402.488021,147.671996 C402.488021,147.671996 404.774891,141.67316 405.742999,142.984926 C406.711108,144.296692 404.736777,149.735534 403.524736,150.924561 C402.312694,152.113589 402.518513,155.696014 402.404169,155.987517 C402.289826,156.279021 408.167082,151.38483 408.42626,149.704849 C408.685439,148.024868 414.52458,131.002597 410.71313,127.458528 L413,127.289763 C411.630781,126.352243 410.066054,125.743386 408.42626,125.510057 C408.42626,125.510057 393.264312,105.342617 374.19944,116.2203 Z" id="Path" fill="#333333"></path>
                <path d="M327.449979,223.442822 C324.481696,222.927867 321.563658,222.160345 318.72822,221.148766 C314.184381,219.978883 309.534662,219.259099 304.847436,219 C304.847436,219 303.945185,222.058742 306.389746,222.685784 C308.834306,223.312826 311.633597,224.337504 311.633597,224.337504 L301.438933,225.354536 L292,226.631561 C292,226.631561 292.902251,229.690302 295.43935,229.690302 C296.172917,231.007772 297.160768,232.169219 298.346603,233.108446 C300.14143,234.71844 301.807023,236.464658 303.328262,238.331248 C304.609032,239.33428 305.973786,240.227103 307.40767,241 C307.932055,241 327.80471,238.705944 329,236.824818 L327.449979,223.442822 Z" id="Path" fill="url(#linearGradient-8)"></path>
                <path d="M410.473304,251.898981 C410.473304,251.898981 413.520864,267.184087 418.038871,271.030314 C418.038871,271.030314 388.416589,294.322635 387.037568,311.173869 C385.109987,334.466189 458,298.345435 458,298.345435 L452.956288,285.478616 L421.353092,299.596802 C421.353092,299.596802 440.583195,286.49967 450.167771,273.394861 C457.680006,263.000067 453.596276,253.434401 449.405881,246.002969 C449.329692,245.757301 431.189092,260.865834 410.473304,251.898981 Z" id="Path" fill="#4C51BF"></path>
                <path d="M410.473304,251.898981 C410.473304,251.898981 413.520864,267.184087 418.038871,271.030314 C418.038871,271.030314 388.416589,294.322635 387.037568,311.173869 C385.109987,334.466189 458,298.345435 458,298.345435 L452.956288,285.478616 L421.353092,299.596802 C421.353092,299.596802 440.583195,286.49967 450.167771,273.394861 C457.680006,263.000067 453.596276,253.434401 449.405881,246.002969 C449.329692,245.757301 431.189092,260.865834 410.473304,251.898981 Z" id="Path" fill="url(#linearGradient-9)"></path>
                <polygon id="Path" fill="url(#linearGradient-10)" points="453 284.832097 459.022367 283 462 289.979771 455.348555 294"></polygon>
                <path d="M372.513531,308.997671 L372,305.871385 C376.125101,306.520298 380.339167,305.484571 383.682819,303 L384,308.120512 C380.548674,310.267978 376.255091,310.595855 372.513531,308.997671 Z" id="Path" fill="url(#linearGradient-11)"></path>
                <path d="M372.57153,308 L359.505112,312.56414 C359.505112,312.56414 352.241721,310.847012 350.789042,314.794175 C349.83652,316.819507 349.742702,319.125218 350.527714,321.216678 C350.527714,321.216678 353.955727,324.190058 362.495016,322.458064 C371.034305,320.72607 385,316.511303 385,316.511303 L384.477343,308.252737 C380.676295,309.927649 376.292928,309.834599 372.57153,308 Z" id="Path" fill="#333333"></path>
                <path d="M458.919974,281.559621 C458.919974,281.559621 455.655308,282.876621 456.029942,283.727027 C456.404576,284.577432 457.559059,282.70353 460.479673,290.296975 L458.606504,291.644077 L462.673956,300.200814 C460.501595,301.81477 459.316617,304.408661 459.53162,307.079316 C459.936837,309.163939 463.690819,309.449916 466.695535,308.426419 C469.70025,307.402922 471,300.832974 471,300.832974 C471,300.832974 469.035084,285.081655 464.990569,282.455181 C460.946054,279.828707 458.919974,281.559621 458.919974,281.559621 Z" id="Path" fill="#333333"></path>
                <path d="M362,264.713653 L300.749088,284 L272.664941,260.694711 C261.347336,272.255843 247.724998,263.584994 249.594731,256.835916 C251.464463,250.086839 264.018382,252.527183 264.018382,252.527183 L247,238.243542 L278.838875,230.236162 C279.037295,231.357196 280.365187,236.794588 288.095959,237.229274 C296.742518,237.724969 298.703829,230.693727 291.52253,227.254367 L311.715641,222 L362,264.713653 Z" id="Path" fill="#4C51BF"></path>
                <path d="M345.473366,256.756972 C345.051335,256.868908 344.652862,257.054351 344.296647,257.3046 C343.967501,257.617102 343.673531,257.963925 343.419876,258.339008 C342.281613,259.738501 340.428088,260.293734 338.743766,260.955451 C336.840227,261.699186 335.032957,262.664322 333.360086,263.830496 C333.108708,263.971714 332.911387,264.190911 332.798645,264.454183 C332.544843,265.268019 333.821544,265.671134 334.252238,266.40891 C334.511591,266.97572 334.409115,267.640411 333.990745,268.105034 C333.576858,268.553705 333.084421,268.924747 332.537152,269.20029 C329.607726,270.96873 327.048999,273.277109 325,276 C334.304843,271.213106 344.00485,267.218242 353.994962,264.058674 C354.772824,263.866676 355.502947,263.519884 356.140743,263.039478 C356.786564,262.537347 357.04749,261.690364 356.794475,260.917421 C356.625274,260.54473 357.217479,260.445853 356.90984,260.156827 C355.410101,258.833394 352.887462,256.620065 350.880118,255 C350.910882,255.015212 347.050015,256.239768 345.473366,256.756972 Z" id="Path" fill="#000405" opacity="0.05"></path>
                <path d="M426.42571,181.338773 C424.223493,178.714957 420.787163,177.507595 417.451771,178.18576 C414.11638,178.863925 411.407731,181.32071 410.378164,184.601625 C409.831865,186.375081 409.255215,188.501693 408.686153,191.119652 C405.651157,205.268915 391.910208,236.03953 391.910208,236.03953 L352,257.850737 L362.925989,272 L409.66494,248.707074 C409.66494,248.707074 430.363618,202.443669 429.991831,193.622452 C430.11388,189.249725 428.865616,184.950018 426.42571,181.338773 L426.42571,181.338773 Z" id="Path" fill="#4C51BF"></path>
                <path d="M426.42571,181.338773 C424.223493,178.714957 420.787163,177.507595 417.451771,178.18576 C414.11638,178.863925 411.407731,181.32071 410.378164,184.601625 C409.831865,186.375081 409.255215,188.501693 408.686153,191.119652 C405.651157,205.268915 391.910208,236.03953 391.910208,236.03953 L352,257.850737 L362.925989,272 L409.66494,248.707074 C409.66494,248.707074 430.363618,202.443669 429.991831,193.622452 C430.11388,189.249725 428.865616,184.950018 426.42571,181.338773 L426.42571,181.338773 Z" id="Path" fill="url(#linearGradient-12)" opacity="0.61"></path>
                <path d="M355.008557,259 C352.066095,259.802362 349.061431,260.348564 346.027302,260.632653 C341.387052,261.486173 336.840951,262.800727 332.454768,264.5573 C332.454768,264.5573 332.919315,267.77551 335.381418,267.3281 C337.843521,266.880691 340.847596,266.676609 340.847596,266.676609 L332.075387,272.006279 L324,277.241758 C324,277.241758 326.105949,279.714286 328.413203,278.607535 C329.652041,279.51848 331.053548,280.176921 332.539935,280.546311 C334.847309,281.274273 337.096563,282.179567 339.268134,283.254317 C340.862276,283.643265 342.486415,283.892742 344.122657,284 C344.594947,283.788069 361.883863,273.073783 362,270.844584 L355.008557,259 Z" id="Path" fill="url(#linearGradient-13)"></path>
                <path d="M219.87674,254 L234.562633,259.816052 L234.562633,268.547804 C234.562633,268.547804 216.970157,268.923776 216.970157,276.57365 C216.970157,284.223523 233.560627,290.223725 244.682132,280.011106 L270,294.589601 L269.082132,302.062998 L192.103574,330 L148,276.021201 L148,267.297123 L219.87674,254 Z" id="Path" fill="#3F3D56"></path>
                <path d="M219.858719,245 L234.571518,259.323928 C234.571518,259.323928 216.983452,259.705493 216.983452,267.313887 C216.983452,274.922281 233.569763,280.889949 244.688479,270.725073 L270,293.878401 L192.903096,321 L148,266.939954 L178.251473,257.706095 C178.251473,257.706095 168.631566,251.250025 177.876771,246.938347 C179.584656,246.100902 181.438641,245.600784 183.336718,245.465509 C190.593707,245.17552 191.748402,248.90722 192.704275,252.989959 L192.704275,253.310473 L219.858719,245 Z" id="Path" fill="#4C51BF"></path>
                <path d="M161.158948,264 L161.158948,264 C161.158948,264 173.407868,290.487931 179.23376,294.882277 C182.479724,297.334581 204.918214,304.615335 223.97294,305.643475 C225.756689,305.742481 231.329948,300.601781 233.963465,301.279592 C237.791253,302.277269 233.266808,305.696786 234.154855,305.742481 C245.638217,306.283206 252,301.279592 252,301.279592 L191.520958,323 L151,265.195689 L161.158948,264 Z" id="Path" fill="#000405" opacity="0.05"></path>
                <path d="M219.891091,311.026289 C221.932191,308.385179 224.26727,305.979606 226.852262,303.854969 C228.966429,302.606535 231.24137,301.6462 233.615413,301 C233.615413,301 234.681675,304.201482 232.853797,304.804114 C231.025918,305.406746 229.974888,308.570564 229.974888,308.570564 C229.974888,308.570564 243.272705,311.086553 244.879715,310.310664 C246.486725,309.534775 246.639048,311.998033 243.501189,312.45754 C240.363331,312.917047 240.454725,317.368991 238.3222,317.73057 C236.189675,318.092149 233.028968,320.103433 229.89111,320.84919 C226.254446,321.158604 222.592388,320.991434 219,320.352019 L219.891091,311.026289 Z" id="Path" fill="url(#linearGradient-14)"></path>
                <path d="M158.215498,271.844462 C161.7503,252.556246 153.134587,233.066856 136.511065,222.747405 C133.618992,220.759744 130.303667,219.478105 126.829896,219.004854 C112.876501,218.193586 98,319.341942 98,319.341942 C98,319.341942 104.721127,338.934844 125.067603,340.817599 C143.865397,342.562592 147.527305,331.212485 147.527305,331.212485 L158.215498,271.844462 Z" id="Path" fill="#4C51BF"></path>
                <path d="M158.215498,271.844462 C161.7503,252.556246 153.134587,233.066856 136.511065,222.747405 C133.618992,220.759744 130.303667,219.478105 126.829896,219.004854 C112.876501,218.193586 98,319.341942 98,319.341942 C98,319.341942 104.721127,338.934844 125.067603,340.817599 C143.865397,342.562592 147.527305,331.212485 147.527305,331.212485 L158.215498,271.844462 Z" id="Path" fill="url(#linearGradient-15)" opacity="0.61"></path>
                <path d="M127,219.79819 C127,219.79819 129.0336,204.545979 129.868286,194.625157 C130.702973,184.704336 133.935486,171.417932 150.454691,173.154267 C166.973896,174.890602 166.966308,200.078932 162.375533,210.634625 C157.784757,221.190317 151.683957,220.84611 151.683957,220.84611 C151.683957,220.84611 143.458501,219.017986 143.739259,229 L127,219.79819 Z" id="Path" fill="url(#linearGradient-16)"></path>
                <path d="M132.885817,171.332613 C130.420478,173.629737 128.635121,176.52787 127.716194,179.724354 C126.954099,182.317341 126.433742,184.971712 126.16142,187.655342 L127.894993,185.827438 C127.796777,190.425942 127.433427,195.015486 126.806652,199.574485 C126.167268,203.824947 125.907171,208.12115 126.029265,212.415133 L129.138812,212.27162 L133.025747,217 L137.402435,214.129737 L140.690782,212.445347 L143.629304,205.420757 C142.158654,204.373016 141.58388,202.50323 142.222234,200.843443 C143.310575,197.980734 145.977012,197.316042 146.598922,199.007986 C147.075272,201.115404 147.335671,203.263474 147.376309,205.420757 L152.04063,192.580109 C152.04063,192.580109 154.979153,188.591954 157.536756,191.348917 C159.067762,193.011929 161.006462,194.272059 163.172811,195.012278 L161.618037,190.714438 L165.847022,191.771903 L165.520519,186.87735 L168.630067,189.022494 C168.630067,189.022494 170.037137,181.091505 167.362926,177.564104 C164.688715,174.036702 154.217314,160.017736 132.885817,171.332613 Z" id="Path" fill="#333333"></path>
                <path d="M220,308.303911 L185.950423,304.62898 C176.515301,302.819404 169.285992,295.213751 167.977689,285.720621 L155.386837,247.408321 C153.833015,242.504534 149.621019,238.906833 144.523692,238.129501 C140.516356,237.53159 136.482152,239.029598 133.842633,242.095665 C131.203114,245.161733 130.32876,249.36551 131.52767,253.225691 L144.523692,299.482551 C145.784543,309.94981 154.215705,318.110525 164.743973,319.054228 L218.149978,326 L220,308.303911 Z" id="Path" fill="#4C51BF"></path>
                <path d="M220,308.303911 L185.950423,304.62898 C176.515301,302.819404 169.285992,295.213751 167.977689,285.720621 L155.386837,247.408321 C153.833015,242.504534 149.621019,238.906833 144.523692,238.129501 C140.516356,237.53159 136.482152,239.029598 133.842633,242.095665 C131.203114,245.161733 130.32876,249.36551 131.52767,253.225691 L144.523692,299.482551 C145.784543,309.94981 154.215705,318.110525 164.743973,319.054228 L218.149978,326 L220,308.303911 Z" id="Path" fill="url(#linearGradient-17)" opacity="0.61"></path>
                <path d="M136.000128,365 L126,367.311502 L130.004628,379 L140.470055,376.557512 C140.470055,376.557512 143.26948,367.519538 136.000128,365 Z" id="Path" fill="url(#linearGradient-18)"></path>
                <path d="M122.173671,366.423086 C122.173671,366.423086 128.754994,365.048938 129.844211,367.253614 C130.933427,369.45829 127.435661,369.314835 128.13368,372.440643 C128.718558,374.81814 129.443368,377.160155 130.304443,379.454834 L133.549081,378.737559 L134.216418,382.512689 C134.51202,383.850759 135.724884,384.798255 137.115882,384.777767 C144.709717,385.208132 143.697206,391.988265 141.027858,392.244974 L131.201896,393 L126.008941,388.696352 C125.387311,388.271356 124.896394,387.686269 124.589891,387.005094 C122.695267,383.343218 116.873328,369.714999 122.173671,366.423086 Z" id="Path" fill="#333333"></path>
                <path d="M281.622678,129.017972 C281.12284,129.743078 280.688733,130.511637 280.32556,131.314439 C278.135721,136.01454 270.726891,152.824676 269.643417,167.391929 C269.198067,174.729304 263.347089,180.569674 256.031313,180.979356 L242.800715,181.744845 L238.474447,181.974492 C231.288232,182.400607 224.889461,177.444644 223.481295,170.362026 C220.772609,156.950661 215.004251,136.458524 203.79563,127.40279 C203.79563,127.40279 154.375455,82.0016459 187.329868,31.3722123 C189.545024,27.9514222 192.022109,24.7087226 194.738698,21.6734684 C229.325954,-16.7387628 286.414382,0.760312621 300.133307,36.4397486 C313.852232,72.1191846 287.078201,121.324809 281.622678,129.017972 Z" id="Path" fill="#4C51BF" opacity="0.4"></path>
                <path d="M271.546741,186.687291 C270.407727,189.565557 269.095221,190.947733 270.234235,192.85392 C271.373249,194.760107 274.654514,199.886308 258.006808,202.164619 C254.558298,202.644031 251.085211,202.922954 247.604821,203 L242.158675,203 L238.967928,202.855707 C235.324593,202.627876 232.382769,202.255752 230.421553,201.936788 C228.265736,201.618761 226.345941,200.392791 225.141356,198.564887 C224.546602,197.17915 224.780193,195.574067 225.744807,194.418361 C226.173341,194.017785 226.426072,193.462086 226.447296,192.873742 C226.46852,192.285398 226.256496,191.712704 225.857954,191.281885 C225.6326,191.045025 225.360141,190.858702 225.058382,190.73509 C223.186508,188.962823 223.059334,186.011227 224.771743,184.082421 C225.179503,183.657603 225.518084,183.170631 225.77498,182.639491 C226.501003,180.966 226.248468,179.025518 225.118727,177.596828 L224.658596,177.02725 C224.023232,176.162743 223.559644,175.182854 223.293288,174.141389 C222.728521,172.684554 222.991163,171.034073 223.979713,169.827786 C225.371752,176.850213 231.694241,181.763652 238.794436,181.340853 L243.071395,181.082645 C243.193263,180.915647 243.28986,180.731378 243.358034,180.53585 C244.112348,178.698012 242.415142,176.563994 243.27506,173.700916 L246.488437,173.556623 C254.389213,173.080906 262.191954,171.548577 269.691129,169 C271.379683,170.406782 271.855318,172.813793 270.830143,174.764128 C270.534258,175.401799 270.333459,176.07994 270.234235,176.776636 C270.039097,178.236268 270.286233,179.721209 270.94329,181.037078 C271.018452,181.197067 271.104131,181.35183 271.199756,181.500335 C272.127252,183.075661 272.256048,185.000978 271.546741,186.687291 L271.546741,186.687291 Z" id="Path" fill="#4C51BF"></path>
                <path d="M223,170.103577 C238.052979,166.265256 253.815056,165.983055 269,169.280004 C269,169.280004 244.070968,179.327596 223,170.103577 Z" id="Path" fill="#333333"></path>
                <path d="M246.101498,202.717923 C244.848303,202.961626 243.569193,203.047939 242.294288,202.97483 L239.065773,202.831264 C235.388008,202.604581 232.425998,202.234332 230.438635,201.916976 C228.262445,201.600551 226.324508,200.38076 225.10854,198.562066 C224.504245,197.184953 224.737221,195.587099 225.710079,194.436435 C226.259242,193.914219 226.510456,193.155016 226.380148,192.411399 C226.239887,191.66876 225.725209,191.049598 225.017167,190.771725 C223.125878,189.008083 223.000747,186.0682 224.735433,184.152579 C226.492511,182.406631 226.640286,179.62694 225.078082,177.707224 C224.233026,176.716135 223.624003,175.548741 223.296308,174.291866 C222.727436,172.843357 222.989351,171.203042 223.981606,170 C231.198843,172.74259 238.905522,173.98977 246.626893,173.66471 L247,173.8385 C247,173.8385 244.121749,174.926579 244.867962,177.420092 C245.614175,179.913606 246.710652,184.409487 244.235965,187.333699 C241.761278,190.25791 246.520291,191.058857 245.62179,194.353317 L245.62179,194.670674 C245.255857,195.652483 244.97563,196.663684 244.784204,197.693115 C244.266423,200.284858 244.510084,202.49124 246.101498,202.717923 Z" id="Path" fill="url(#linearGradient-19)"></path>
                <path d="M246.134438,172.946843 C238.393544,173.283046 230.666279,172.0217 223.432176,169.24108 C220.747864,155.938535 214.982695,135.484249 203.780268,126.452884 C203.780268,126.452884 154.387406,81.1355995 187.323607,30.5996835 C189.537538,27.1852119 192.013254,23.9485019 194.728342,20.9188541 L199.166607,20.5138944 C199.166607,20.5138944 228.709289,4.91912505 241.23862,21.988559 C253.76795,39.057993 226.421523,58.350885 224.987857,89.5251422 C223.55419,120.699399 259.1442,126.468165 246.134438,172.946843 Z" id="Path" fill="#FFFFFF" opacity="0.49"></path>
                <path d="M267.322953,195.414252 C265.175595,196.944525 257.468112,199.820095 243.732689,198.777491 C237.29425,198.21618 230.919973,196.977289 224.697891,195.077928 C225.133583,194.634431 225.390535,194.019189 225.412114,193.367805 C225.433693,192.716421 225.218127,192.082364 224.812928,191.605383 C224.583809,191.343144 224.3068,191.136856 224,191 C230.670113,193.505532 237.656993,194.850305 244.706669,194.985439 C252.620978,195.228264 260.523111,194.153826 268.143551,191.798769 C268.143551,191.798769 270.536321,193.118841 267.322953,195.414252 Z" id="Path" fill="url(#linearGradient-20)"></path>
                <path d="M270,181.184196 C267.425077,183.239719 257.692483,187.036219 243.622371,185.734144 C237.015263,185.5055 230.465987,184.470548 224.134192,182.654517 C224.872206,181.04508 224.615514,179.177851 223.467471,177.804653 L223,177.248711 C223.927279,177.585202 225.490624,178.053364 227.598076,178.580046 C232.346863,179.726896 237.194593,180.461392 242.082015,180.774555 L244.335073,180.774555 C252.84449,181.101347 261.337604,179.818553 269.325616,177 C269.093134,178.427743 269.32868,179.889178 270,181.184196 L270,181.184196 Z" id="Path" fill="url(#linearGradient-21)"></path>
                <path d="M175,252 L175.15917,260 L179,258.632 C179,258.632 175,255.424 175,252 Z" id="Path" fill="#3F3D56"></path>
                <path d="M267.668005,96.7827802 L266.744673,96.1597776 C268.135925,91.9700694 268.627287,87.5360178 268.186902,83.1451008 C267.088061,73.845647 260.495014,68.170245 249.643956,67.1901555 C233.00872,65.6174538 226.423303,74.1647459 223.981434,79.3918899 C216.930536,94.0020612 223.30992,117.660966 233.474201,128.274803 C246.004044,141.297078 241.16609,165.852498 239.395735,173.100602 C239.335191,173.27758 239.296748,173.461302 239.281272,173.647628 L239.281272,174.133874 L241.837604,175 L242.020745,174.285826 C243.537504,168.484277 244.417656,162.536019 244.645754,156.545447 C245.095974,143.629539 241.990221,133.182848 235.63373,126.345015 C226.247794,116.551717 220.150751,93.9412804 226.629336,80.5619192 C230.55922,72.5464586 238.487665,68.8540284 249.575278,69.8797035 C261.63964,71.0193424 264.974318,77.9103592 265.645832,83.4641997 C265.995569,87.2689452 265.577863,91.1049129 264.417266,94.7466253 C261.723736,93.391952 258.630757,93.0467889 255.702845,93.7741334 C249.987344,95.3392375 246.377956,101.23497 244.355782,105.884697 C243.322611,108.2469 243.792966,110.994091 245.553825,112.88208 C247.272172,114.728292 249.916461,115.402828 252.314751,114.606733 C257.465569,112.790909 262.837682,106.500102 265.859496,98.8265327 L266.157098,99.0316677 C274.551025,104.912205 268.560814,113.976133 261.670163,124.483604 C256.763532,131.845672 250.67412,141.008369 250.017867,150.034309 C249.254783,158.118148 249.605802,164.507724 250.155222,172.644746 L250.193377,173.290542 L252.94048,173.290542 L252.902326,172.530782 C252.368167,164.408955 252.047671,158.095356 252.76497,150.239444 C253.352545,141.973263 258.961214,133.471557 263.906,125.927147 L264.127294,125.585255 C271.285024,114.621929 278.053581,104.213226 267.668005,96.7827802 Z M251.30748,111.977966 C249.950398,112.441079 248.44672,112.048832 247.492058,110.982682 C246.462683,109.894837 246.191735,108.297216 246.805283,106.933164 C248.255143,103.582626 251.429573,97.7400769 256.366728,96.3725102 C257.073243,96.1819213 257.8019,96.0848497 258.533887,96.0838017 C260.218811,96.1407885 261.870507,96.5661794 263.371841,97.3298069 C260.495014,104.570313 255.603644,110.549619 251.30748,111.993161 L251.30748,111.977966 Z M265.180351,96.6840115 L265.180351,96.6840115 L265.302444,96.767585 L265.180351,96.6840115 Z" id="Shape" fill="#FFFFFF"></path>
            </g>
        </g>
    </g>
</svg>