<?xml version="1.0" encoding="UTF-8"?>
<svg width="541px" height="416px" viewBox="0 0 541 416" version="1.1" xmlns="http://www.w3.org/2000/svg" xmlns:xlink="http://www.w3.org/1999/xlink">
    <!-- Generator: Sketch 61.2 (89653) - https://sketch.com -->
    <title>rocket_boy</title>
    <desc>Created with Sketch.</desc>
    <defs>
        <linearGradient x1="52.0234935%" y1="44.6736281%" x2="47.465694%" y2="54.3316144%" id="linearGradient-1">
            <stop stop-color="#FFFFFF" stop-opacity="0" offset="2%"></stop>
            <stop stop-color="#FFFFFF" stop-opacity="0.39" offset="58%"></stop>
            <stop stop-color="#FFFFFF" stop-opacity="0.68" offset="68%"></stop>
            <stop stop-color="#FFFFFF" offset="100%"></stop>
        </linearGradient>
        <linearGradient x1="51.9418296%" y1="44.9251373%" x2="47.3973554%" y2="54.1347625%" id="linearGradient-2">
            <stop stop-color="#FFFFFF" stop-opacity="0" offset="2%"></stop>
            <stop stop-color="#FFFFFF" stop-opacity="0.39" offset="58%"></stop>
            <stop stop-color="#FFFFFF" stop-opacity="0.68" offset="68%"></stop>
            <stop stop-color="#FFFFFF" offset="100%"></stop>
        </linearGradient>
        <linearGradient x1="54.5395871%" y1="39.4587967%" x2="49.9861579%" y2="49.0324745%" id="linearGradient-3">
            <stop stop-color="#FFFFFF" stop-opacity="0" offset="2%"></stop>
            <stop stop-color="#FFFFFF" stop-opacity="0.39" offset="58%"></stop>
            <stop stop-color="#FFFFFF" stop-opacity="0.68" offset="68%"></stop>
            <stop stop-color="#FFFFFF" offset="100%"></stop>
        </linearGradient>
        <linearGradient x1="32.7074529%" y1="43.9814717%" x2="52.5029504%" y2="56.5126039%" id="linearGradient-4">
            <stop stop-color="#000000" offset="1%"></stop>
            <stop stop-color="#000000" stop-opacity="0.69" offset="13%"></stop>
            <stop stop-color="#000000" stop-opacity="0" offset="100%"></stop>
        </linearGradient>
        <linearGradient x1="47.5945523%" y1="45.8139161%" x2="51.9782163%" y2="64.3910851%" id="linearGradient-5">
            <stop stop-color="#000000" offset="1%"></stop>
            <stop stop-color="#000000" stop-opacity="0.69" offset="13%"></stop>
            <stop stop-color="#000000" stop-opacity="0" offset="100%"></stop>
        </linearGradient>
        <linearGradient x1="52.9108286%" y1="67.7184078%" x2="47.6225503%" y2="39.0573995%" id="linearGradient-6">
            <stop stop-color="#000000" offset="1%"></stop>
            <stop stop-color="#000000" stop-opacity="0.69" offset="13%"></stop>
            <stop stop-color="#000000" stop-opacity="0" offset="100%"></stop>
        </linearGradient>
        <linearGradient x1="56.2634861%" y1="62.0126046%" x2="43.1890499%" y2="36.1472116%" id="linearGradient-7">
            <stop stop-color="#000000" offset="1%"></stop>
            <stop stop-color="#000000" stop-opacity="0.69" offset="13%"></stop>
            <stop stop-color="#000000" stop-opacity="0" offset="100%"></stop>
        </linearGradient>
        <linearGradient x1="0.00511064613%" y1="50.0195691%" x2="99.9826698%" y2="50.0195691%" id="linearGradient-8">
            <stop stop-color="#000000" offset="1%"></stop>
            <stop stop-color="#000000" stop-opacity="0.69" offset="13%"></stop>
            <stop stop-color="#000000" stop-opacity="0" offset="100%"></stop>
        </linearGradient>
        <linearGradient x1="0.00591240214%" y1="49.9239742%" x2="100.095626%" y2="49.9239742%" id="linearGradient-9">
            <stop stop-color="#000000" offset="1%"></stop>
            <stop stop-color="#000000" stop-opacity="0.69" offset="13%"></stop>
            <stop stop-color="#000000" stop-opacity="0" offset="100%"></stop>
        </linearGradient>
        <linearGradient x1="18.7171594%" y1="66.5642767%" x2="68.0156745%" y2="39.7921156%" id="linearGradient-10">
            <stop stop-color="#000000" offset="1%"></stop>
            <stop stop-color="#000000" stop-opacity="0.69" offset="13%"></stop>
            <stop stop-color="#000000" stop-opacity="0" offset="100%"></stop>
        </linearGradient>
        <linearGradient x1="49.852833%" y1="51.6452628%" x2="50.1839588%" y2="47.4342829%" id="linearGradient-11">
            <stop stop-color="#000000" offset="1%"></stop>
            <stop stop-color="#000000" stop-opacity="0.69" offset="13%"></stop>
            <stop stop-color="#000000" stop-opacity="0" offset="100%"></stop>
        </linearGradient>
        <linearGradient x1="48.2656321%" y1="50.880026%" x2="72.9119124%" y2="34.337361%" id="linearGradient-12">
            <stop stop-color="#000000" offset="1%"></stop>
            <stop stop-color="#000000" stop-opacity="0.69" offset="13%"></stop>
            <stop stop-color="#000000" stop-opacity="0" offset="100%"></stop>
        </linearGradient>
        <linearGradient x1="45.6412597%" y1="48.0630375%" x2="74.9429484%" y2="62.0388241%" id="linearGradient-13">
            <stop stop-color="#000000" offset="1%"></stop>
            <stop stop-color="#000000" stop-opacity="0.69" offset="13%"></stop>
            <stop stop-color="#000000" stop-opacity="0" offset="100%"></stop>
        </linearGradient>
        <linearGradient x1="49.458194%" y1="-6.50666667%" x2="50.7938963%" y2="133.6%" id="linearGradient-14">
            <stop stop-color="#000000" offset="1%"></stop>
            <stop stop-color="#000000" stop-opacity="0.69" offset="13%"></stop>
            <stop stop-color="#000000" stop-opacity="0" offset="100%"></stop>
        </linearGradient>
        <linearGradient x1="49.4619565%" y1="-6.50666667%" x2="50.7976589%" y2="133.6%" id="linearGradient-15">
            <stop stop-color="#000000" offset="1%"></stop>
            <stop stop-color="#000000" stop-opacity="0.69" offset="13%"></stop>
            <stop stop-color="#000000" stop-opacity="0" offset="100%"></stop>
        </linearGradient>
    </defs>
    <g id="Page-1" stroke="none" stroke-width="1" fill="none" fill-rule="evenodd">
        <g id="1" transform="translate(-820.000000, -1182.000000)" fill-rule="nonzero">
            <g id="rocket_boy" transform="translate(1090.500000, 1390.000000) scale(-1, 1) translate(-1090.500000, -1390.000000) translate(820.000000, 1182.000000)">
                <path d="M454.928169,24.4163864 C433.303241,7.58151513 405.208236,0.816099561 377.825098,0.0766239061 C344.609973,-0.827569769 311.668742,6.28208208 281.818013,20.7976758 C259.117375,31.811143 238.710531,46.9782607 216.959049,59.675215 C171.304666,86.2963386 119.718061,102.234399 75.693062,131.451554 C31.668063,160.668709 -5.58629303,209.253833 0.693952972,261.520602 C6.610356,310.860935 49.8127535,348.60566 96.2739185,366.856549 C142.735084,385.107437 193.514906,388.60028 242.333141,399.078807 C287.070007,408.676257 333.689364,424.252446 377.36634,410.690148 C400.683928,403.452727 420.837665,388.442945 443.807229,380.324446 C471.949692,370.396592 505.818726,369.798718 525.750993,347.693116 C541.269687,330.496374 543.247094,304.834995 539.149906,282.100052 C534.404128,255.541862 523.0459,230.66716 519.882048,203.7471 C517.161135,180.650285 521.922732,158.198546 520.941938,135.290534 C519.344193,97.1996711 484.304533,47.1355959 454.928169,24.4163864 Z" id="Path" fill="#FFFAF0"></path>
                <path d="M256.330558,300.847721 C243.245811,286.988016 223.956693,281.055604 205.465143,285.203949 C198.067972,286.959882 191.112422,290.312119 183.731022,292.115942 C166.491456,296.152739 148.382442,291.655156 134.94754,280 C139.17198,294.218878 149.356964,305.840412 162.801284,311.782399 C150.057329,311.670657 137.912718,306.57845 126.525174,300.863684 C109.17573,292.179794 91.6054751,281.708045 72.1898702,281.021634 C49.3516931,280.319261 28.642766,293.377022 10,306.833858 C24.2234286,299.136748 40.6916371,296.821983 56.4491929,300.304978 C91.1480806,308.142827 116.683308,342.830498 152.107717,345.783659 C172.879733,347.507666 192.768505,337.802142 210.922332,327.426171 C204.622773,336.283631 199.401294,345.877464 195.370922,356 C210.638432,342.974165 235.763581,349.391304 251.362309,336.764545 C257.210905,331.727631 261.284751,324.904298 262.970664,317.321571 C264.343112,312.725783 264.343112,307.822001 262.970664,303.226213 C261.393442,298.740601 257.387297,294.909473 252.687175,294.670027" id="Path" fill="#4C51BF" opacity="0.59"></path>
                <path d="M256.330558,300.847721 C243.245811,286.988016 223.956693,281.055604 205.465143,285.203949 C198.067972,286.959882 191.112422,290.312119 183.731022,292.115942 C166.491456,296.152739 148.382442,291.655156 134.94754,280 C139.17198,294.218878 149.356964,305.840412 162.801284,311.782399 C150.057329,311.670657 137.912718,306.57845 126.525174,300.863684 C109.17573,292.179794 91.6054751,281.708045 72.1898702,281.021634 C49.3516931,280.319261 28.642766,293.377022 10,306.833858 C24.2234286,299.136748 40.6916371,296.821983 56.4491929,300.304978 C91.1480806,308.142827 116.683308,342.830498 152.107717,345.783659 C172.879733,347.507666 192.768505,337.802142 210.922332,327.426171 C204.622773,336.283631 199.401294,345.877464 195.370922,356 C210.638432,342.974165 235.763581,349.391304 251.362309,336.764545 C257.210905,331.727631 261.284751,324.904298 262.970664,317.321571 C264.343112,312.725783 264.343112,307.822001 262.970664,303.226213 C261.393442,298.740601 257.387297,294.909473 252.687175,294.670027" id="Path" fill="url(#linearGradient-1)"></path>
                <path d="M254.718987,308.980701 C247.668118,301.67298 237.266977,298.547481 227.29942,300.741237 C223.318646,301.670737 219.576719,303.419456 215.595946,304.380465 C206.301034,306.511069 196.535961,304.142476 189.290995,298 C191.585617,305.471989 197.072913,311.574695 204.306472,314.699488 C197.443619,314.699488 190.899227,311.942497 184.73699,308.949193 C175.342364,304.364711 165.915893,298.803466 155.438497,298.488381 C143.145869,298.11028 131.951934,305.026388 122,312.084285 C129.662762,308.022721 138.540428,306.80465 147.031104,308.649862 C165.740739,312.777471 179.514215,331.052383 198.606005,332.612052 C209.75217,333.525798 220.532105,328.389917 230.308885,322.938952 C226.915336,327.607978 224.10319,332.664825 221.933337,338 C230.149654,331.131154 243.700207,334.518314 252.187216,327.870028 C255.337297,325.209229 257.532574,321.611342 258.444991,317.614021 C259.185003,315.194789 259.185003,312.613009 258.444991,310.193777 C257.644793,307.744383 255.47245,305.983061 252.887832,305.688066" id="Path" fill="url(#linearGradient-2)"></path>
                <path d="M255.189445,309.677161 C250.347871,304.571792 243.207849,302.389262 236.366009,303.923297 C233.629211,304.564396 231.05153,305.798512 228.314733,306.455638 C221.934034,307.932989 215.235682,306.280389 210.255054,302 C211.82199,307.238295 215.590837,311.520839 220.565778,313.716085 C215.842757,313.39904 211.249434,312.024698 207.120467,309.693188 C200.755822,306.487693 194.200238,302.609044 187.00819,302.384659 C178.559124,302.112192 170.873816,306.95249 164,311.888952 C169.264924,309.045612 175.365861,308.192879 181.200452,309.484831 C194.041122,312.369777 203.476708,325.159702 216.603787,326.233543 C224.289096,326.874642 231.656172,323.284488 238.370872,319.469948 C236.051082,322.739807 234.123016,326.274331 232.62678,330 C238.275402,325.191757 247.583695,327.563824 253.311875,322.915856 C255.479525,321.05942 256.99229,318.546025 257.623921,315.751574 C258.12536,314.057453 258.12536,312.252794 257.623921,310.558672 C257.099875,308.824863 255.607746,307.567128 253.821046,307.353177" id="Path" fill="url(#linearGradient-3)"></path>
                <path d="M239.935416,207.939645 C227.204508,212.114542 214.829132,217.279573 202.925706,223.386148 C201.008391,224.20519 199.314077,225.459488 197.980645,227.04697 C196.673118,228.716219 196.673118,231.046587 197.980645,232.715836 C199.295155,234.044236 201.423409,234.059682 203.30128,233.967003 C226.746241,232.834 249.948463,228.74879 272.344342,221.810605 C273.112995,221.645521 273.821648,221.277089 274.394351,220.744796 C275.458478,219.570862 274.942064,217.655496 274.206564,216.296203 C266.914164,202.270779 252.98662,203.67641 239.935416,207.939645 Z" id="Path" fill="#F3BD8D"></path>
                <path d="M343.155096,269.311099 C342.893467,269.893913 342.966548,270.572472 343.346281,271.086256 C343.726014,271.600039 344.353381,271.869195 344.987515,271.790384 L351.306201,272.832632 C351.977593,273.086397 352.724211,273.050329 353.367998,272.733029 C354.011785,272.41573 354.495033,271.845641 354.702495,271.158719 C357.861838,265.173692 360.879011,259.030748 364.607036,253.361553 C372.221052,241.817872 383.089193,232.263937 388.191532,219.40955 C389.63811,215.598853 390.696579,211.652032 391.350875,207.628995 C392.472442,201.170219 392.614612,193.62182 387.828207,189.152789 C387.201027,188.445142 386.309255,188.027972 385.36392,188 C384.666541,188.107663 384.011422,188.402371 383.468314,188.852748 C378.729299,192.137407 371.494403,195.390482 367.845362,199.906888 C364.97036,203.523171 363.106348,209.160783 361.131758,213.329773 C355.612059,224.779788 351.118731,236.696484 347.70455,248.939897 C345.872131,255.656603 344.355646,262.447004 343.155096,269.311099 Z" id="Path" fill="#F3BD8D"></path>
                <path d="M277.722077,183.2656 C274.911845,186.956414 272.1174,190.63159 269.038775,194.087819 C266.086384,197.400887 262.882649,200.485552 259.455569,203.314856 C258.781041,203.763355 258.27142,204.416327 258.003089,205.175902 C257.957293,206.27603 258.422682,207.336338 259.266115,208.053487 C262.423679,211.540994 265.691758,214.903389 269.133502,218.093754 C270.196661,219.600819 271.830351,220.617448 273.662429,220.91206 C275.494508,221.206673 277.36896,220.754181 278.8588,219.657658 C295.072891,211.556633 308.855658,199.452012 324.643478,190.537756 C325.297366,190.107309 326.033565,189.814539 326.806409,189.677608 C327.651477,189.628487 328.497226,189.761891 329.285097,190.068585 C341.458743,193.84454 353.394436,198.335692 365.028722,203.518164 C366.034321,204.058323 367.153437,204.358226 368.2968,204.39395 C369.63253,204.200643 370.880034,203.618153 371.880636,202.720572 C377.069427,198.910951 381.932721,194.684554 386.421218,190.084224 C387.214324,189.401992 387.767335,188.487166 388,187.472503 C387.983457,186.251598 387.497943,185.082804 386.642247,184.203942 C378.213803,173.182814 367.521836,164.057421 355.271849,157.429897 C345.496196,151.896353 334.558037,148.684371 323.317301,148.046469 C314.981332,147.764967 302.572105,148.593836 296.478007,155.271708 C293.462533,158.602825 291.425904,163.091231 289.105095,166.828963 C285.591484,172.49351 281.792341,177.979326 277.722077,183.2656 L277.722077,183.2656 Z" id="Path" fill="#3F3D56"></path>
                <path d="M277.722077,183.2656 C274.911845,186.956414 272.1174,190.63159 269.038775,194.087819 C266.086384,197.400887 262.882649,200.485552 259.455569,203.314856 C258.781041,203.763355 258.27142,204.416327 258.003089,205.175902 C257.957293,206.27603 258.422682,207.336338 259.266115,208.053487 C262.423679,211.540994 265.691758,214.903389 269.133502,218.093754 C270.196661,219.600819 271.830351,220.617448 273.662429,220.91206 C275.494508,221.206673 277.36896,220.754181 278.8588,219.657658 C295.072891,211.556633 308.855658,199.452012 324.643478,190.537756 C325.297366,190.107309 326.033565,189.814539 326.806409,189.677608 C327.651477,189.628487 328.497226,189.761891 329.285097,190.068585 C341.458743,193.84454 353.394436,198.335692 365.028722,203.518164 C366.034321,204.058323 367.153437,204.358226 368.2968,204.39395 C369.63253,204.200643 370.880034,203.618153 371.880636,202.720572 C377.069427,198.910951 381.932721,194.684554 386.421218,190.084224 C387.214324,189.401992 387.767335,188.487166 388,187.472503 C387.983457,186.251598 387.497943,185.082804 386.642247,184.203942 C378.213803,173.182814 367.521836,164.057421 355.271849,157.429897 C345.496196,151.896353 334.558037,148.684371 323.317301,148.046469 C314.981332,147.764967 302.572105,148.593836 296.478007,155.271708 C293.462533,158.602825 291.425904,163.091231 289.105095,166.828963 C285.591484,172.49351 281.792341,177.979326 277.722077,183.2656 L277.722077,183.2656 Z" id="Path" fill="url(#linearGradient-4)"></path>
                <path d="M268.898889,153.45066 C273.336396,152.567507 277.582356,150.894164 282.035825,150.165949 C294.518308,148.120752 307.080602,153.636587 319.722708,153.156276 C320.443865,153.220528 321.157209,152.970805 321.670103,152.474543 C321.948004,152.005944 322.054863,151.460029 321.973386,150.925151 L321.494518,139.444159 C321.578601,136.109846 320.981848,132.792359 319.73867,129.682991 C316.817578,123.485424 309.203582,120.634543 302.260001,121.037385 C295.316421,121.440227 288.86767,124.46154 282.626428,127.436373 L267.143041,134.749502 C263.583458,136.453833 258.730933,138.220139 256.512179,141.690777 C255.107501,143.921901 254.261501,149.592675 255.889651,151.746329 C258.172254,154.8761 265.658551,154.008441 268.898889,153.45066 Z" id="Path" fill="#3F3D56"></path>
                <path d="M268.898889,153.45066 C273.336396,152.567507 277.582356,150.894164 282.035825,150.165949 C294.518308,148.120752 307.080602,153.636587 319.722708,153.156276 C320.443865,153.220528 321.157209,152.970805 321.670103,152.474543 C321.948004,152.005944 322.054863,151.460029 321.973386,150.925151 L321.494518,139.444159 C321.578601,136.109846 320.981848,132.792359 319.73867,129.682991 C316.817578,123.485424 309.203582,120.634543 302.260001,121.037385 C295.316421,121.440227 288.86767,124.46154 282.626428,127.436373 L267.143041,134.749502 C263.583458,136.453833 258.730933,138.220139 256.512179,141.690777 C255.107501,143.921901 254.261501,149.592675 255.889651,151.746329 C258.172254,154.8761 265.658551,154.008441 268.898889,153.45066 Z" id="Path" fill="url(#linearGradient-5)"></path>
                <path d="M426.253552,79.8768273 C426.754824,80.5480699 427.017434,81.3698338 426.999101,82.2098167 C426.744369,82.9757098 426.095033,83.5402079 425.306083,83.6816355 C424.545001,83.8695273 423.752854,83.8225544 422.97624,83.9478155 C420.056171,84.4488603 418.161232,87.1889485 416.437149,89.6158839 C414.713066,92.0428192 412.321094,94.579358 409.36996,94.313178 C407.911592,93.9734919 406.50227,93.4473076 405.176244,92.7474133 C401.333984,91.6001966 397.18809,92.170368 393.791081,94.313178 C392.237852,95.2213216 390.389511,96.3799875 388.572234,95.8789428 C386.953907,95.3039958 385.706582,93.9825702 385.21726,92.3246568 C384.271716,89.7052787 383.869931,86.918042 384.036807,84.1357073 C384.008802,83.1099903 384.199483,82.0901591 384.595969,81.1450967 C385.310454,79.579332 386.832618,78.7964496 387.93541,77.5751531 C388.791554,76.5570717 389.512132,75.4306337 390.078865,74.2244166 C391.94087,70.7720604 394.015917,67.4408759 396.291778,64.2504953 C399.398235,59.8193811 403.390031,55.4039246 408.717604,54.229601 C413.181678,53.4915759 417.754803,54.548511 421.454076,57.1732387 C424.777985,59.333994 426.37781,63.6241894 426.641859,67.5386012 C426.905908,71.453013 424.172226,75.7901813 426.253552,79.8768273 Z" id="Path" fill="#F3BD8D"></path>
                <path d="M431.658998,58.8286335 C433.050154,60.368578 434.536161,62.2473103 433.808966,64.1260426 C432.985731,65.6430985 431.290331,66.5116763 429.540647,66.3127638 C426.141801,66.1587693 423.217212,63.9104504 420.229389,62.4629025 C416.794996,60.8336966 412.966415,60.1570601 409.163377,60.507173 C408.720483,60.5226264 408.287417,60.6386373 407.89869,60.8459608 C407.455626,61.1934851 407.117018,61.6510116 406.918557,62.170313 L403.029644,70.3628179 C402.239215,69.7314406 402.381492,68.5456833 402.507961,67.5601189 C402.63443,66.5745544 402.413109,65.281001 401.417168,65.0346098 C401.010094,64.9707418 400.592785,65.0412035 400.231524,65.2348026 C398.214426,66.1962001 397.200211,68.4321235 397.828619,70.5322118 C398.002513,71.0557929 398.223833,71.717969 397.828619,72.0721563 C397.531616,72.2367073 397.185473,72.2965303 396.848486,72.2415502 C395.172776,72.2415502 393.923897,73.6582991 392.801488,74.8748553 C391.679078,76.0914115 390.145645,77.3233671 388.533169,76.9229815 C388.16791,76.8550591 387.844465,76.6505373 387.632079,76.353202 C387.456926,75.9069721 387.456926,75.4134819 387.632079,74.967252 L388.311849,71.3637818 C388.662439,70.2361031 388.612312,69.026195 388.169571,67.9297055 C387.425065,66.9411317 386.404348,66.1820426 385.229174,65.7429843 C384.122573,65.142406 382.984354,64.2030398 383,63.0018831 C383.183374,61.8330924 384.037276,60.8696382 385.197557,60.5225724 C386.337967,60.2189807 387.461822,59.8591974 388.564786,59.4446113 C387.79517,57.477066 387.915765,55.2842181 388.896766,53.4080288 C389.967403,52.1837152 391.404729,51.3167136 393.006999,50.9287181 C396.851854,49.6616027 400.819207,48.7792807 404.847632,48.295413 C408.154478,47.7566009 411.543775,47.9566966 414.759617,48.8805919 C416.181042,49.4125364 417.555658,50.0563056 418.86985,50.8055225 C418.86985,51.4368998 425.051008,54.1472021 425.825629,54.5783866 C428.012792,55.6479758 429.987844,57.0870171 431.658998,58.8286335 Z" id="Path" fill="#3F3D56"></path>
                <path d="M430.981292,53.5039419 L430.821188,49.3644408 C431.183276,45.6197507 429.200769,42.037005 425.825948,40.3371442 C423.151306,38.2114587 420.193253,36.4647356 417.036247,35.1468467 C411.346568,33.1186203 405.034954,33.8055646 399.921147,37.0096222 C396.208521,39.5639863 393.171169,42.9722045 391.067405,46.9444248 C390.538324,48.1889434 389.660139,49.2556846 388.537764,50.0172083 C387.657194,50.3885713 386.708333,50.5729477 385.751957,50.5585276 C380.132312,50.8451085 374.080387,51.0202412 369.421366,47.9156154 C368.724261,47.3145625 367.857638,46.9420453 366.939756,46.8488978 C366.229386,47.0069554 365.624623,47.4671995 365.28559,48.1077725 C364.946557,48.7483455 364.907446,49.5046423 365.178614,50.1764198 C365.83413,51.5103407 366.980732,52.5422331 368.380691,53.0581494 C373.648107,55.5896136 379.732053,55.5418501 385.591853,55.7965886 C395.326167,56.242381 404.996439,57.6912064 414.66671,58.9808202 C418.771301,59.583002 422.910439,59.923349 427.058747,60 C430.661084,60.0316166 431.109375,56.6881735 430.981292,53.5039419 Z" id="Path" fill="#4C51BF"></path>
                <path d="M430.981292,53.5039419 L430.821188,49.3644408 C431.183276,45.6197507 429.200769,42.037005 425.825948,40.3371442 C423.151306,38.2114587 420.193253,36.4647356 417.036247,35.1468467 C411.346568,33.1186203 405.034954,33.8055646 399.921147,37.0096222 C396.208521,39.5639863 393.171169,42.9722045 391.067405,46.9444248 C390.538324,48.1889434 389.660139,49.2556846 388.537764,50.0172083 C387.657194,50.3885713 386.708333,50.5729477 385.751957,50.5585276 C380.132312,50.8451085 374.080387,51.0202412 369.421366,47.9156154 C368.724261,47.3145625 367.857638,46.9420453 366.939756,46.8488978 C366.229386,47.0069554 365.624623,47.4671995 365.28559,48.1077725 C364.946557,48.7483455 364.907446,49.5046423 365.178614,50.1764198 C365.83413,51.5103407 366.980732,52.5422331 368.380691,53.0581494 C373.648107,55.5896136 379.732053,55.5418501 385.591853,55.7965886 C395.326167,56.242381 404.996439,57.6912064 414.66671,58.9808202 C418.771301,59.583002 422.910439,59.923349 427.058747,60 C430.661084,60.0316166 431.109375,56.6881735 430.981292,53.5039419 Z" id="Path" fill="url(#linearGradient-6)"></path>
                <path d="M390.672644,93.7070657 C387.602842,103.97081 376.030816,109.829112 371.771668,119.671058 C370.759115,122.014379 370.164442,124.498299 369.376901,126.904108 C366.291027,135.98057 359.733546,143.541684 355.988709,152.383814 C354.686857,155.508242 353.626087,158.867001 350.94202,160.944746 C348.71275,162.501916 345.974659,163.213106 343.243408,162.944379 C333.182174,162.335116 325.435346,153.321142 315.454473,152.008883 C309.52381,151.227776 303.625291,153.274276 298,155.305154 C298.670361,146.105141 300.132696,136.975909 302.371654,128.01328 C304.628816,119.0126 309.095723,110.677403 315.390184,103.720856 C318.524274,100.440207 322.172677,97.6438443 325.162117,94.2382183 C327.010427,92.1292298 337.77884,97.6750886 339.884306,95.8004321 C341.652255,94.2382183 334.564389,85.1617564 336.669854,84.1463175 C343.790045,81.0462691 351.285931,78.8363358 358.97815,77.5693976 C367.158929,76.0071838 376.12725,74.6480579 383.488344,78.4911037 C387.349509,80.4444677 390.244048,83.8206367 391.524474,87.8643862 C392.725494,91.9934817 391.615804,96.4323842 388.599322,99.5653672" id="Path" fill="#FFFFFF"></path>
                <path d="M434.52761,169.493976 C435.388399,169.832705 436.264839,170.125244 437.141278,170.448576 C440.064927,171.57097 442.746545,173.22697 445.044885,175.329353 C447.077825,177.117895 448.904321,179.121292 450.491332,181.303301 C453.581545,185.792695 453.835846,191.612221 451.148661,196.345948 C450.775768,197.096768 450.126817,197.680153 449.333179,197.978006 C448.062192,198.113505 446.80616,197.616934 445.983928,196.653884 C442.884798,193.917276 440.271741,190.690942 438.252479,187.107884 C436.687408,184.305672 434.809323,180.841398 431.553976,180.764414 C430.819718,180.825843 430.081484,180.825843 429.347226,180.764414 C428.580148,180.537576 427.877901,180.136775 427.296984,179.594259 C419.47163,173.327773 411.990592,166.368431 402.741024,162.442254 C398.327525,160.563848 393.3506,159.208932 390.502171,155.359739 C390.163888,155.02581 389.982395,154.56828 390.001349,154.097203 C390.674329,149.801504 395.823412,143.688985 400.487323,144.012317 C404.180889,144.289459 405.855515,147.199449 408.40658,149.262617 C411.442817,151.7261 434.355453,169.493976 434.52761,169.493976 Z" id="Path" fill="#F3BD8D"></path>
                <path d="M323.535305,133.157834 C311.631844,133.393247 299.664728,132.137708 287.872663,134.209348 C276.165026,136.296571 265.298961,141.619295 256.538551,149.55831 C255.924264,150.239517 255.122661,150.730201 254.231062,150.970791 C252.63969,151.221899 251.318852,149.809417 250.491338,148.444019 C246.672046,142.166325 246.68796,134.319207 247.308595,127.005694 C248.040626,118.373864 249.584256,109.475233 254.517509,102.302967 C256.131005,99.8306335 258.257021,97.7232421 260.755687,96.1194384 C264.496287,94.0965288 268.666092,92.9676637 272.929681,92.823649 C287.09289,91.6465813 301.240186,94.2361301 315.419309,94.9894534 C319.462685,95.4208967 323.552708,95.0527495 327.45008,93.9065512 C333.115364,91.8819948 337.237017,87.0481704 342.361234,83.9407118 C348.854031,80.0014587 356.683581,78.9499449 364.25851,78.3221755 C368.505602,77.7310435 372.828506,77.9548658 376.989485,78.9813334 C381.047483,80.221178 384.819035,83.2344712 385.757944,87.3306666 C386.696853,91.426862 384.739466,95.4759747 382.718424,99.1170373 C381.180224,102.130889 379.225414,104.919667 376.909917,107.403594 C373.106538,111.185904 368.093717,113.367403 363.606048,116.239448 C359.786756,118.703443 357.670231,121.810902 354.551142,124.855583 C347.167177,131.99646 333.258587,132.953809 323.535305,133.157834 Z" id="Path" fill="#4C51BF"></path>
                <path d="M323.535305,133.157834 C311.631844,133.393247 299.664728,132.137708 287.872663,134.209348 C276.165026,136.296571 265.298961,141.619295 256.538551,149.55831 C255.924264,150.239517 255.122661,150.730201 254.231062,150.970791 C252.63969,151.221899 251.318852,149.809417 250.491338,148.444019 C246.672046,142.166325 246.68796,134.319207 247.308595,127.005694 C248.040626,118.373864 249.584256,109.475233 254.517509,102.302967 C256.131005,99.8306335 258.257021,97.7232421 260.755687,96.1194384 C264.496287,94.0965288 268.666092,92.9676637 272.929681,92.823649 C287.09289,91.6465813 301.240186,94.2361301 315.419309,94.9894534 C319.462685,95.4208967 323.552708,95.0527495 327.45008,93.9065512 C333.115364,91.8819948 337.237017,87.0481704 342.361234,83.9407118 C348.854031,80.0014587 356.683581,78.9499449 364.25851,78.3221755 C368.505602,77.7310435 372.828506,77.9548658 376.989485,78.9813334 C381.047483,80.221178 384.819035,83.2344712 385.757944,87.3306666 C386.696853,91.426862 384.739466,95.4759747 382.718424,99.1170373 C381.180224,102.130889 379.225414,104.919667 376.909917,107.403594 C373.106538,111.185904 368.093717,113.367403 363.606048,116.239448 C359.786756,118.703443 357.670231,121.810902 354.551142,124.855583 C347.167177,131.99646 333.258587,132.953809 323.535305,133.157834 Z" id="Path" fill="url(#linearGradient-7)"></path>
                <path d="M340.18484,266.68341 C337.86444,271.49696 336.194013,276.628127 335.221969,281.928203 C334.892158,283.796599 334.750811,286.045289 336.117171,287.26884 C337.152016,287.999515 338.394444,288.33236 339.635155,288.211306 L373.056006,288.971892 C373.816117,289.073353 374.586341,288.898341 375.239041,288.475858 C375.773451,287.914431 376.04873,287.135558 375.992895,286.342909 C375.992895,282.903737 373.57428,279.92753 370.778739,278.075668 C367.983198,276.223806 364.747909,275.364013 361.858136,273.743634 C361.359329,273.488134 360.911537,273.134559 360.538892,272.701961 C359.109711,270.850099 360.790177,268.27072 361.591146,266.088168 C361.712401,265.814523 361.766405,265.513189 361.748199,265.211841 C361.552652,264.475663 360.903261,263.976579 360.177671,264.004823 C357.916109,263.872548 356.31417,266.50153 354.084019,266.898358 C353.102035,266.99132 352.112431,266.867425 351.178541,266.534599 C349.48237,266.071634 340.18484,261.822272 340.18484,266.68341 Z" id="Path" fill="#3F3D56"></path>
                <path d="M197.821477,220.563331 C195.886174,220.550781 193.978177,221.028326 192.269215,221.952985 C190.779962,223.105559 189.576974,224.597615 188.756872,226.309316 C185.588622,231.932341 182.781064,237.758156 180.351791,243.750255 C179.262811,246.451493 178.281196,249.636767 179.722943,252.150636 C181.15474,254.248189 183.642032,255.322969 186.118781,254.91433 C188.533436,254.474822 190.831746,253.528299 192.867387,252.135022 C195.84249,250.502776 198.570148,248.441209 200.965714,246.014298 C202.852256,243.953238 204.478057,241.330071 207.10081,240.48691 C209.094717,239.815504 211.410715,240.237085 213.235907,239.190941 C213.57484,239.034692 213.839439,238.748491 213.972118,238.394622 C214.140833,237.73883 213.511986,237.176723 212.944489,236.833213 L210.505789,235.131277 C209.54203,234.571833 208.70565,233.81085 208.05175,232.898463 C205.797102,229.322836 209.922955,225.091417 208.32783,221.750002 C206.947433,218.861395 200.490244,220.375962 197.821477,220.563331 Z" id="Path" fill="#3F3D56"></path>
                <path d="M340.18484,266.68341 C337.86444,271.49696 336.194013,276.628127 335.221969,281.928203 C334.892158,283.796599 334.750811,286.045289 336.117171,287.26884 C337.152016,287.999515 338.394444,288.33236 339.635155,288.211306 L373.056006,288.971892 C373.816117,289.073353 374.586341,288.898341 375.239041,288.475858 C375.773451,287.914431 376.04873,287.135558 375.992895,286.342909 C375.992895,282.903737 373.57428,279.92753 370.778739,278.075668 C367.983198,276.223806 364.747909,275.364013 361.858136,273.743634 C361.359329,273.488134 360.911537,273.134559 360.538892,272.701961 C359.109711,270.850099 360.790177,268.27072 361.591146,266.088168 C361.712401,265.814523 361.766405,265.513189 361.748199,265.211841 C361.552652,264.475663 360.903261,263.976579 360.177671,264.004823 C357.916109,263.872548 356.31417,266.50153 354.084019,266.898358 C353.102035,266.99132 352.112431,266.867425 351.178541,266.534599 C349.48237,266.071634 340.18484,261.822272 340.18484,266.68341 Z" id="Path" fill="url(#linearGradient-8)"></path>
                <path d="M197.821477,220.563331 C195.886174,220.550781 193.978177,221.028326 192.269215,221.952985 C190.779962,223.105559 189.576974,224.597615 188.756872,226.309316 C185.588622,231.932341 182.781064,237.758156 180.351791,243.750255 C179.262811,246.451493 178.281196,249.636767 179.722943,252.150636 C181.15474,254.248189 183.642032,255.322969 186.118781,254.91433 C188.533436,254.474822 190.831746,253.528299 192.867387,252.135022 C195.84249,250.502776 198.570148,248.441209 200.965714,246.014298 C202.852256,243.953238 204.478057,241.330071 207.10081,240.48691 C209.094717,239.815504 211.410715,240.237085 213.235907,239.190941 C213.57484,239.034692 213.839439,238.748491 213.972118,238.394622 C214.140833,237.73883 213.511986,237.176723 212.944489,236.833213 L210.505789,235.131277 C209.54203,234.571833 208.70565,233.81085 208.05175,232.898463 C205.797102,229.322836 209.922955,225.091417 208.32783,221.750002 C206.947433,218.861395 200.490244,220.375962 197.821477,220.563331 Z" id="Path" fill="url(#linearGradient-9)"></path>
                <path d="M377.293704,92.151623 C377.216691,91.6564189 378.048437,91.8800594 378.341088,92.2794176 C383.547201,99.8352736 386.427506,108.79687 389.800698,117.391058 C393.173889,125.985245 397.332618,134.659304 404.325445,140.457984 C407.190347,142.854133 410.809982,145.250282 410.994814,149.100094 C411.118036,152.071319 409.023268,154.579288 407.067125,156.735822 C402.446315,161.799683 397.009162,167.246928 390.324389,166.991339 C389.615865,164.275704 387.13603,162.566451 385.056666,160.777326 C376.908637,153.796546 372.980948,142.870107 365.972719,134.659304 C362.491709,130.585851 358.16355,127.023576 356.176601,121.991663 C353.511934,115.186601 355.791534,107.407104 358.856671,100.793733 C360.252427,97.40028 362.253958,94.3109521 364.755906,91.6883675 C367.302082,89.0606248 370.834457,87.7284545 374.413399,88.0462213 C378.047478,88.4882942 380.911044,91.464747 381.329212,95.2346678" id="Path" fill="#4C51BF"></path>
                <path d="M377.293704,92.151623 C377.216691,91.6564189 378.048437,91.8800594 378.341088,92.2794176 C383.547201,99.8352736 386.427506,108.79687 389.800698,117.391058 C393.173889,125.985245 397.332618,134.659304 404.325445,140.457984 C407.190347,142.854133 410.809982,145.250282 410.994814,149.100094 C411.118036,152.071319 409.023268,154.579288 407.067125,156.735822 C402.446315,161.799683 397.009162,167.246928 390.324389,166.991339 C389.615865,164.275704 387.13603,162.566451 385.056666,160.777326 C376.908637,153.796546 372.980948,142.870107 365.972719,134.659304 C362.491709,130.585851 358.16355,127.023576 356.176601,121.991663 C353.511934,115.186601 355.791534,107.407104 358.856671,100.793733 C360.252427,97.40028 362.253958,94.3109521 364.755906,91.6883675 C367.302082,89.0606248 370.834457,87.7284545 374.413399,88.0462213 C378.047478,88.4882942 380.911044,91.464747 381.329212,95.2346678" id="Path" fill="url(#linearGradient-10)"></path>
                <path d="M510.993116,326.293021 C494.615364,337.481087 458.774195,345.120938 458.774195,345.120938 L253.80702,346 L253.379774,318.828982 L253,289.532232 C257.351577,288.65317 454.47009,286 454.47009,286 C475.54263,286.603058 495.932843,293.678109 512.923634,306.282365 C522.797757,313.50666 519.53803,320.363346 510.993116,326.293021 Z" id="Path" fill="#4C51BF"></path>
                <path d="M513,324.755853 C496.625828,335.681159 460.792494,343.141583 460.792494,343.141583 L255.870125,344 L255,317.560758 L255.442973,317.560758 C266.675497,317.123746 456.362767,316 456.362767,316 C475.577513,316.13157 494.665519,319.082487 513,324.755853 L513,324.755853 Z" id="Path" fill="url(#linearGradient-11)"></path>
                <polygon id="Path" fill="#4C51BF" points="254.273163 288 233 259 254.824281 259 302 287.07176"></polygon>
                <polygon id="Path" fill="#4C51BF" points="255.273163 345 234 374 255.824281 374 303 345.471668"></polygon>
                <polygon id="Path" fill="url(#linearGradient-12)" points="254.273163 288 233 259 254.824281 259 302 287.07176"></polygon>
                <polygon id="Path" fill="url(#linearGradient-13)" points="255.273163 345 234 374 255.824281 374 303 345.471668"></polygon>
                <rect id="Rectangle" fill="url(#linearGradient-14)" x="263" y="286" width="9" height="60"></rect>
                <rect id="Rectangle" fill="url(#linearGradient-15)" x="452" y="286" width="9" height="60"></rect>
            </g>
        </g>
    </g>
</svg>